<?xml version="1.0" encoding="utf-8"?>
<!-- Generator: Adobe Illustrator 16.0.4, SVG Export Plug-In . SVG Version: 6.00 Build 0)  -->
<!DOCTYPE svg PUBLIC "-//W3C//DTD SVG 1.1//EN" "http://www.w3.org/Graphics/SVG/1.1/DTD/svg11.dtd">
<svg version="1.1" xmlns="http://www.w3.org/2000/svg" xmlns:xlink="http://www.w3.org/1999/xlink" x="0px" y="0px"
	 width="674.468px" height="141.25px" viewBox="0 0 674.468 141.25" enable-background="new 0 0 674.468 141.25"
	 xml:space="preserve">
<g id="Layer_7">
	<text transform="matrix(1 0 0 1 -8.75 136.4668)" font-family="'Optima-Regular'" font-size="240">came</text>
</g>
<g id="yeast">
	<ellipse cx="618.201" cy="78.137" rx="55.73" ry="60.33"/>
	<ellipse transform="matrix(0.9611 0.2761 -0.2761 0.9611 31.5656 -179.7484)" cx="654.093" cy="22.219" rx="16.816" ry="18.161"/>
</g>
<g id="Ecoli">
	<g>
		<g>
			<g>
				<path fill="#FDFDFE" d="M638.996,85.437c8.181-2.473,8.018-13.7,16.422-16.187c2.64-0.78,5.284,0.704,7.612,1.74
					c2.1,0.935,4.23,1.468,6.519,1.651c5.473,0.438,10.886-2.056,15.546-4.634c0.612-0.339,0.064-1.277-0.549-0.938
					c-5.679,3.143-11.86,5.548-18.402,3.927c-4.168-1.033-7.227-3.914-11.724-2.584c-8.097,2.396-7.926,13.623-15.713,15.977
					C638.039,84.592,638.324,85.64,638.996,85.437L638.996,85.437z"/>
			</g>
		</g>
		<g>
			<g>
				<path fill="#FDFDFE" d="M639.736,83.61c1.558-5.867,7.037-9.089,12.88-9.416c5.375-0.302,10.461,1.762,15.714-0.305
					c4.13-1.624,7.403-5.169,10.229-8.454c3.333-3.875,6.173-8.148,9.542-11.992c0.46-0.524-0.306-1.295-0.768-0.768
					c-6.389,7.29-11.921,18.833-22.212,21.009c-3.027,0.64-6.388-0.135-9.414-0.444c-2.736-0.279-5.252-0.021-7.875,0.789
					c-4.521,1.396-7.927,4.709-9.143,9.291C638.51,83.999,639.557,84.286,639.736,83.61L639.736,83.61z"/>
			</g>
		</g>
		<g>
			<g>
				<path fill="#FDFDFE" d="M596.252,102.441c-0.032-5.435-0.801-11.072,1.029-16.312c2.421-6.931,9.247-6.94,15.312-8.125
					c4.94-0.966,8.03-3.593,10.042-8.111c2.453-5.511,8.248-9.09,13.9-10.681c8.521-2.399,19.208,1.004,26.26-5.676
					c2.146-2.033,3.413-4.845,4.676-7.462c1.853-3.837,3.914-7.438,6.809-10.601c0.472-0.515-0.294-1.285-0.768-0.768
					c-2.738,2.991-4.801,6.366-6.579,9.997c-1.449,2.959-2.766,6.038-5.199,8.344c-3.448,3.266-8.737,3.764-13.233,3.927
					c-5.693,0.206-11.046,0.323-16.352,2.668c-4.697,2.076-8.644,5.643-10.725,10.317c-2.814,6.321-8.627,6.893-14.732,7.904
					c-5.024,0.832-8.523,3.177-10.457,7.978c-2.074,5.146-1.1,11.213-1.068,16.6C595.17,103.142,596.256,103.142,596.252,102.441
					L596.252,102.441z"/>
			</g>
		</g>
		<g>
			<g>
				<path fill="#FDFDFE" d="M610.917,102.135c4.478,3.287,9.632,5.946,15.081,3.47c4.871-2.215,8.071-6.379,13.835-6.491
					c3.221-0.062,6.072,3.646,8.402,5.455c2.315,1.798,4.753,2.614,7.68,2.115c8.402-1.432,14.819-8.216,23.399-9.119
					c0.689-0.072,0.696-1.159,0-1.086c-7.792,0.82-13.793,6.16-21.05,8.544c-4.292,1.41-7.33,0.445-10.676-2.367
					c-2.137-1.796-4.253-4.104-7.134-4.581c-4.55-0.755-8.748,2.541-12.218,4.936c-1.958,1.352-4.023,2.448-6.441,2.575
					c-3.808,0.199-7.411-2.244-10.33-4.388C610.9,100.782,610.359,101.725,610.917,102.135L610.917,102.135z"/>
			</g>
		</g>
		<g>
			<g>
				<path fill="#FDFDFE" d="M638.809,80.135c1.282-3.577,3.729-6.736,6.326-9.459c2.678-2.808,6.1-5.331,10.152-3.981
					c2.566,0.855,4.3,2.668,7.117,2.978c2.935,0.322,6.145-0.504,8.806-1.675c5.225-2.298,8.759-7.216,12.186-11.554
					c4.21-5.332,8.807-10.114,15.417-12.313c0.661-0.22,0.378-1.269-0.289-1.047c-6.229,2.071-10.796,6.295-14.865,11.3
					c-4.01,4.934-7.715,10.561-13.844,13.034c-3.32,1.339-7.482,1.827-10.726,0.12c-2.72-1.432-4.605-2.639-7.814-2.167
					c-3.122,0.459-5.865,3.373-7.872,5.571c-2.351,2.575-4.459,5.608-5.641,8.904C637.524,80.507,638.574,80.789,638.809,80.135
					L638.809,80.135z"/>
			</g>
		</g>
		<g>
			<g>
				<path fill="#FDFDFE" d="M638.285,85.027c3.978-0.016,8.41,0.053,11.706-2.503c1.32-1.024,2.306-2.481,3.241-3.844
					c1.661-2.42,3.277-4.886,4.862-7.355c2.598-4.047,5.659-8.031,10.346-9.68c4.835-1.701,10.486-1.239,15.52-1.239
					c0.7,0,0.7-1.086,0-1.086c-4.96,0-10.15-0.261-14.991,1.027c-3.87,1.03-6.79,3.657-9.214,6.738
					c-3.266,4.15-5.628,8.968-8.948,13.073c-3.088,3.815-7.996,3.765-12.521,3.782C637.585,83.944,637.585,85.03,638.285,85.027
					L638.285,85.027z"/>
			</g>
		</g>
		<g>
			<g>
				<path fill="#FDFDFE" d="M601.9,114.596c4.826,0.631,9.371,2.801,13.98,4.255c3.727,1.176,8.175,2.3,11.834,0.409
					c3.553-1.834,5.851-5.793,7.86-9.071c2.807-4.58,5.412-8.909,9.936-12.023c7.49-5.155,17.565-2.199,25.04-7.64
					c3.338-2.43,5.551-6.22,7.651-9.683c2.652-4.371,5.287-8.741,9.238-12.08c0.536-0.452-0.236-1.217-0.768-0.768
					c-6.998,5.912-9.42,15.411-16.31,21.305c-6.881,5.886-17.179,3.083-24.779,7.532c-8.062,4.721-9.979,14.32-16.655,20.264
					c-4.018,3.576-9.641,1.736-14.175,0.253c-4.244-1.389-8.393-3.256-12.854-3.839C601.207,113.419,601.216,114.506,601.9,114.596
					L601.9,114.596z"/>
			</g>
		</g>
		<g>
			<g>
				<path fill="#FDFDFE" d="M608.637,92.376c-0.048-7.901-3.47-27.284,9.367-26.652c2.369,0.117,4.715,1.271,6.859,2.175
					c2.571,1.084,5.132,2.062,7.906,2.475c3.691,0.55,8.33,0.461,11.337-2.096c2.55-2.168,3.74-5.365,4.985-8.377
					c2.028-4.91,4.457-9.874,8.92-13.006c4.921-3.452,10.859-2.833,16.338-1.335c6.057,1.655,11.828,4.147,17.979,5.493
					c0.683,0.149,0.973-0.897,0.289-1.047c-6.379-1.396-12.384-3.964-18.668-5.681c-4.917-1.344-9.943-1.649-14.649,0.563
					c-4.783,2.249-7.766,6.987-9.918,11.612c-1.688,3.625-2.718,7.923-5.724,10.738c-4.07,3.812-11.396,2.356-16.016,0.633
					c-4.473-1.668-8.948-4.464-13.802-2.56c-4.706,1.848-5.861,6.436-6.363,10.989c-0.589,5.344,0.04,10.725,0.072,16.077
					C607.555,93.076,608.641,93.076,608.637,92.376L608.637,92.376z"/>
			</g>
		</g>
		<g>
			<g>
				<path fill="#FDFDFE" d="M624.894,81.539c0.745-6.396,0.435-16.683,7.641-19.551c4.196-1.67,9.251-0.974,13.244,0.818
					c3.702,1.661,7.115,3.34,11.267,2.443c6.888-1.488,12.394-8.983,16.428-14.169c4.85-6.233,9.047-12.928,13.278-19.586
					c0.377-0.593-0.563-1.137-0.938-0.548c-4.423,6.959-8.826,13.934-13.934,20.42c-4.84,6.146-11.974,15.196-20.85,12.519
					c-4.188-1.264-7.405-3.62-11.905-3.822c-3.176-0.143-6.836,0.227-9.428,2.257c-5.397,4.229-5.174,13.07-5.89,19.219
					C623.727,82.233,624.813,82.226,624.894,81.539L624.894,81.539z"/>
			</g>
		</g>
		<g>
			<g>
				<path fill="#FDFDFE" d="M672.391,85.154c6.157-0.482,10.85-3.222,14.358-8.274c4.092-5.892,6.365-12.924,10.065-19.065
					c0.362-0.601-0.577-1.147-0.938-0.548c-3.312,5.497-5.618,11.501-8.808,17.059c-3.284,5.724-8.002,9.219-14.679,9.742
					C671.697,84.123,671.692,85.209,672.391,85.154L672.391,85.154z"/>
			</g>
		</g>
		<g>
			<g>
				<path fill="#FDFDFE" d="M627.447,93.693c4.646,0.042,9.399,0.778,14.026,0.102c3.768-0.551,6.364-2.767,8.876-5.439
					c2.651-2.822,6.032-4.239,9.902-3.952c4.077,0.304,8.02,0.958,12.139,0.751c0.697-0.035,0.7-1.121,0-1.086
					c-3.931,0.197-7.766-0.256-11.657-0.703c-2.968-0.342-5.99,0.281-8.522,1.901c-3.219,2.059-4.929,5.402-8.638,6.884
					c-4.817,1.923-11.073,0.503-16.126,0.457C626.747,92.601,626.747,93.687,627.447,93.693L627.447,93.693z"/>
			</g>
		</g>
		<path fill="#FDFDFE" stroke="#FDFDFE" stroke-width="1.0859" stroke-miterlimit="10" d="M591.208,112.769
			c2.191,3.234,5.771,4.631,8,3.122l41.774-28.292c2.228-1.509,2.259-5.352,0.07-8.586l0,0c-2.191-3.233-5.773-4.632-8.003-3.124
			l-41.771,28.293C589.049,105.689,589.018,109.534,591.208,112.769L591.208,112.769z"/>
	</g>
</g>
<g id="Layer_3">
	<g>
		<g id="g3" transform="matrix(0.95,0,0,0.95,6.985925,4.12585)">
			<path id="path5" fill="#FFFFFF" d="M662.597,46.268v-2.662h0.363l1.395,2.089v-2.089h0.339v2.662h-0.363l-1.396-2.089v2.089
				H662.597z"/>
			<path id="path7" fill="#FFFFFF" d="M665.299,46.268v-2.662h0.355v1.094h1.378v-1.094h0.353v2.662h-0.353v-1.254h-1.378v1.254
				H665.299z"/>
		</g>
		<g id="g9" transform="matrix(0.95,0,0,0.95,6.985925,4.12585)">
			<path id="path11" fill="#FFFFFF" d="M667.767,46.438l0.244-0.034c0.029,0.139,0.077,0.239,0.145,0.3
				c0.068,0.062,0.15,0.092,0.249,0.092c0.116,0,0.215-0.04,0.294-0.119c0.079-0.081,0.119-0.179,0.119-0.297
				c0-0.112-0.036-0.205-0.111-0.278c-0.074-0.073-0.169-0.11-0.283-0.11c-0.046,0-0.104,0.01-0.174,0.027l0.028-0.215
				c0.017,0.002,0.03,0.003,0.04,0.003c0.105,0,0.198-0.027,0.282-0.082c0.084-0.054,0.126-0.138,0.126-0.251
				c0-0.089-0.032-0.164-0.091-0.223c-0.062-0.059-0.14-0.088-0.236-0.088c-0.096,0-0.176,0.029-0.24,0.09
				c-0.064,0.061-0.105,0.15-0.123,0.271l-0.245-0.044c0.03-0.164,0.099-0.292,0.205-0.382c0.107-0.09,0.238-0.135,0.397-0.135
				c0.11,0,0.21,0.023,0.301,0.07c0.093,0.047,0.162,0.111,0.211,0.191c0.048,0.081,0.074,0.166,0.074,0.257
				c0,0.086-0.024,0.164-0.069,0.235c-0.048,0.071-0.116,0.126-0.207,0.168c0.118,0.028,0.21,0.084,0.276,0.17
				c0.065,0.086,0.098,0.193,0.098,0.322c0,0.174-0.064,0.322-0.191,0.444c-0.128,0.121-0.288,0.182-0.482,0.182
				c-0.177,0-0.323-0.052-0.437-0.156C667.849,46.738,667.783,46.603,667.767,46.438z"/>
		</g>
		<path id="polygon13" fill="#FFFFFF" d="M638.018,45.21h-1.127l0.434-4.298l0.133-0.066l0.125,0.066L638.018,45.21z"/>
		<path id="polygon15" fill="#FFFFFF" d="M632.402,38.072v-0.287l5.055,2.915v0.147l-0.133,0.066L632.402,38.072z"/>
		<g id="g17" transform="matrix(0.95,0,0,0.95,6.985925,4.12585)">
			<path id="path19" fill="#FFFFFF" d="M669.82,36.115l0.354,0.088c-0.074,0.29-0.207,0.511-0.398,0.663
				c-0.191,0.153-0.427,0.229-0.703,0.229c-0.287,0-0.52-0.059-0.699-0.175c-0.181-0.117-0.316-0.286-0.41-0.508
				c-0.095-0.222-0.141-0.461-0.141-0.714c0-0.278,0.052-0.52,0.158-0.727c0.106-0.206,0.257-0.363,0.451-0.47
				c0.196-0.107,0.411-0.161,0.646-0.161c0.266,0,0.489,0.068,0.67,0.204c0.181,0.136,0.308,0.326,0.378,0.573l-0.344,0.081
				c-0.062-0.193-0.152-0.335-0.268-0.423c-0.118-0.088-0.265-0.133-0.443-0.133c-0.203,0-0.375,0.049-0.512,0.147
				c-0.137,0.099-0.233,0.23-0.29,0.395c-0.056,0.165-0.083,0.336-0.083,0.512c0,0.227,0.034,0.424,0.1,0.593
				s0.168,0.295,0.306,0.379c0.139,0.083,0.29,0.125,0.451,0.125c0.197,0,0.364-0.057,0.501-0.171
				C669.68,36.508,669.771,36.34,669.82,36.115z"/>
			<path id="path21" fill="#FFFFFF" d="M670.5,35.754c0-0.443,0.119-0.788,0.358-1.038c0.236-0.25,0.542-0.375,0.918-0.375
				c0.246,0,0.468,0.059,0.665,0.176c0.197,0.118,0.348,0.281,0.451,0.492c0.104,0.21,0.155,0.448,0.155,0.714
				c0,0.27-0.054,0.511-0.162,0.725c-0.11,0.213-0.264,0.374-0.465,0.484c-0.199,0.109-0.415,0.164-0.647,0.164
				c-0.25,0-0.474-0.06-0.671-0.182c-0.197-0.121-0.347-0.286-0.449-0.495C670.551,36.208,670.5,35.987,670.5,35.754z
				 M670.864,35.758c0,0.32,0.086,0.574,0.259,0.758c0.173,0.185,0.39,0.277,0.65,0.277c0.264,0,0.483-0.094,0.654-0.28
				c0.172-0.186,0.258-0.451,0.258-0.794c0-0.216-0.037-0.406-0.11-0.567c-0.074-0.162-0.181-0.287-0.322-0.376
				c-0.142-0.089-0.299-0.134-0.475-0.134c-0.25,0-0.465,0.086-0.645,0.257C670.953,35.071,670.864,35.357,670.864,35.758z"/>
			<path id="path23" fill="#FFFFFF" d="M673.393,35.754c0-0.443,0.119-0.788,0.357-1.038c0.237-0.25,0.544-0.375,0.919-0.375
				c0.246,0,0.468,0.059,0.665,0.176c0.197,0.118,0.347,0.281,0.45,0.492c0.105,0.21,0.156,0.448,0.156,0.714
				c0,0.27-0.054,0.511-0.163,0.725c-0.109,0.213-0.264,0.374-0.464,0.484c-0.199,0.109-0.415,0.164-0.647,0.164
				c-0.251,0-0.475-0.06-0.672-0.182c-0.197-0.121-0.346-0.286-0.447-0.495C673.443,36.208,673.393,35.987,673.393,35.754z
				 M673.757,35.758c0,0.32,0.085,0.574,0.259,0.758c0.172,0.185,0.389,0.277,0.649,0.277c0.266,0,0.483-0.094,0.656-0.28
				c0.171-0.186,0.256-0.451,0.256-0.794c0-0.216-0.036-0.406-0.109-0.567c-0.074-0.162-0.181-0.287-0.322-0.376
				c-0.142-0.089-0.3-0.134-0.475-0.134c-0.25,0-0.464,0.086-0.646,0.257C673.846,35.071,673.757,35.357,673.757,35.758z"/>
		</g>
		<path id="polygon25" fill="#FFFFFF" d="M641.086,38.609l0.125,0.213l-3.629,2.09l-0.125-0.066v-0.147L641.086,38.609z"/>
		<path id="polygon27" fill="#FFFFFF" d="M627.463,40.927l-0.117-0.081l-0.008-0.14l5.064-2.921v0.287L627.463,40.927z"/>
		<g id="g29" transform="matrix(0.95,0,0,0.95,6.985925,4.12585)">
			<path id="path31" fill="#FFFFFF" d="M642.628,47.507v-2.663h0.353v1.095h1.377v-1.095h0.354v2.663h-0.354v-1.255h-1.377v1.255
				H642.628z"/>
			<path id="path33" fill="#FFFFFF" d="M645.295,47.507v-2.663h0.363l1.396,2.09v-2.09h0.338v2.663h-0.363l-1.395-2.09v2.09H645.295
				z"/>
		</g>
		<path id="polygon35" fill="#FFFFFF" d="M622.039,38.623l-0.029-0.155l0.103-0.088l5.226,2.326l0.008,0.14l-0.133,0.081
			L622.039,38.623z"/>
		<path id="polygon37" fill="#FFFFFF" d="M618.256,42.825l-0.154-0.014l-0.044-0.14l3.812-4.231l0.141,0.029l0.029,0.155
			L618.256,42.825z"/>
		<path id="polygon39" fill="#FFFFFF" d="M617.881,41.935l-0.184-0.169l3.23-3.591l0.184,0.169L617.881,41.935z"/>
		<path id="polygon41" fill="#FFFFFF" d="M620.214,46.226l-0.213,0.125l-1.979-3.43l0.08-0.11l0.154,0.014L620.214,46.226z"/>
		<path id="polygon43" fill="#FFFFFF" d="M626.616,46.549l0.236,0.213l-4.401,0.936l-0.052-0.25L626.616,46.549z"/>
		<path id="polygon45" fill="#FFFFFF" d="M627.213,40.927l0.133-0.081l0.117,0.081l-0.61,5.836l-0.236-0.213L627.213,40.927z"/>
		<path id="polygon47" fill="#FFFFFF" d="M626.286,41.376l0.242,0.022l-0.471,4.547l-0.251-0.029L626.286,41.376z"/>
		<path id="polygon49" fill="#FFFFFF" d="M620.104,33.022l0.199-0.212l1.81,5.57l-0.103,0.088l-0.141-0.029L620.104,33.022z"/>
		<path id="polygon51" fill="#FFFFFF" d="M614.532,31.838l-0.044-0.139l0.095-0.104l5.72,1.215l-0.199,0.212L614.532,31.838z"/>
		<path id="rect53" fill="#FFFFFF" d="M619.551,33.546l-0.051,0.243l-4.725-1.003l0.052-0.243L619.551,33.546z"/>
		<path id="polygon55" fill="#FFFFFF" d="M610.721,36.069l-0.279-0.059l3.907-4.342l0.14,0.03l0.044,0.139L610.721,36.069z"/>
		<path id="polygon57" fill="#FFFFFF" d="M612.487,41.494l-0.199,0.212l-1.847-5.696l0.279,0.059L612.487,41.494z"/>
		<path id="polygon59" fill="#FFFFFF" d="M613.185,40.81l-0.241,0.073l-1.495-4.592l0.243-0.073L613.185,40.81z"/>
		<path id="polygon61" fill="#FFFFFF" d="M618.058,42.671l0.044,0.14l-0.08,0.11l-5.733-1.215l0.199-0.212L618.058,42.671z"/>
		<path id="path63" fill="#FFFFFF" stroke="#010101" stroke-width="0.1987" d="M642.277,45.342h1.178 M642.866,44.754v1.177
			 M648.916,36.048h1.178"/>
		<g id="g65" transform="matrix(0.95,0,0,0.95,6.985925,4.12585)">
			<path id="path67" fill="#FFFFFF" d="M633.765,24.646v-2.662h0.354v1.094h1.376v-1.094h0.355v2.663h-0.355v-1.255h-1.376v1.255
				h-0.354V24.646z"/>
			<path id="path69" fill="#FFFFFF" d="M636.33,23.351c0-0.443,0.119-0.788,0.356-1.038c0.237-0.25,0.544-0.375,0.918-0.375
				c0.247,0,0.469,0.058,0.666,0.176c0.197,0.117,0.347,0.281,0.451,0.491c0.104,0.21,0.155,0.448,0.155,0.714
				c0,0.27-0.055,0.511-0.163,0.725c-0.109,0.213-0.264,0.374-0.464,0.484c-0.201,0.109-0.415,0.164-0.646,0.164
				c-0.252,0-0.476-0.06-0.673-0.182c-0.197-0.12-0.346-0.286-0.449-0.495C636.379,23.806,636.33,23.585,636.33,23.351z
				 M636.693,23.355c0,0.321,0.086,0.574,0.258,0.758c0.174,0.185,0.39,0.277,0.651,0.277c0.264,0,0.483-0.094,0.655-0.28
				c0.171-0.186,0.257-0.451,0.257-0.793c0-0.217-0.037-0.407-0.11-0.567c-0.074-0.162-0.181-0.287-0.322-0.376
				c-0.141-0.089-0.299-0.134-0.475-0.134c-0.25,0-0.465,0.085-0.643,0.257C636.783,22.668,636.693,22.954,636.693,23.355z"/>
		</g>
		<path id="polygon71" fill="#FFFFFF" d="M613.111,27.871l0.244-0.081l1.228,3.805l-0.095,0.104l-0.14-0.03L613.111,27.871z"/>
	</g>
</g>
<g id="Layer_4">
	<g>
		<path id="polygon3_2_" fill="#B0AFB0" d="M595.57,51.241v-0.227l4.006,2.305v0.117l-0.105,0.053L595.57,51.241z"/>
		<path id="polygon5_2_" fill="#B0AFB0" d="M599.682,53.488l-0.105-0.053v-0.117l3.998-2.305v0.227L599.682,53.488z"/>
		<g id="g7_2_" transform="matrix(0.95,0,0,0.95,5.793975,3.20085)">
			<path id="path9_2_" fill="#B0AFB0" d="M632.449,53.012c0-0.35,0.094-0.624,0.282-0.821c0.187-0.197,0.431-0.297,0.728-0.297
				c0.193,0,0.37,0.046,0.525,0.139c0.157,0.094,0.276,0.223,0.357,0.389c0.083,0.166,0.122,0.354,0.122,0.566
				c0,0.213-0.042,0.404-0.13,0.572c-0.085,0.169-0.208,0.296-0.366,0.383c-0.157,0.086-0.328,0.13-0.512,0.13
				c-0.198,0-0.375-0.048-0.53-0.143c-0.156-0.096-0.274-0.228-0.356-0.392C632.488,53.372,632.449,53.196,632.449,53.012z
				 M632.735,53.015c0,0.253,0.069,0.453,0.205,0.599c0.138,0.146,0.309,0.218,0.515,0.218c0.21,0,0.382-0.073,0.517-0.22
				c0.137-0.148,0.205-0.357,0.205-0.628c0-0.171-0.03-0.32-0.086-0.448c-0.059-0.129-0.143-0.228-0.256-0.298
				c-0.112-0.07-0.236-0.105-0.376-0.105c-0.197,0-0.367,0.068-0.509,0.203C632.807,52.471,632.735,52.699,632.735,53.015z"/>
			<path id="path11_1_" fill="#B0AFB0" d="M634.831,54.037V51.93h0.28v0.866h1.09V51.93h0.281v2.107h-0.281v-0.992h-1.09v0.992
				H634.831L634.831,54.037z"/>
		</g>
		<path id="polygon13_1_" fill="#B0AFB0" d="M603.574,51.241v-0.227l2.998,1.729l-0.1,0.175L603.574,51.241z"/>
		<g id="g15_2_" transform="matrix(0.95,0,0,0.95,5.793975,3.20085)">
			<path id="path17_2_" fill="#B0AFB0" d="M628.233,45.719c0-0.35,0.095-0.623,0.282-0.821c0.187-0.197,0.43-0.296,0.727-0.296
				c0.194,0,0.37,0.046,0.526,0.138c0.155,0.094,0.274,0.223,0.357,0.39c0.08,0.165,0.124,0.354,0.124,0.565
				c0,0.213-0.044,0.405-0.132,0.574c-0.085,0.169-0.207,0.296-0.366,0.382c-0.158,0.087-0.329,0.13-0.512,0.13
				c-0.196,0-0.375-0.047-0.531-0.144c-0.154-0.095-0.273-0.226-0.354-0.392C628.272,46.08,628.233,45.904,628.233,45.719z
				 M628.52,45.723c0,0.254,0.069,0.454,0.205,0.6c0.138,0.146,0.309,0.218,0.514,0.218c0.211,0,0.381-0.073,0.518-0.22
				c0.136-0.148,0.203-0.357,0.203-0.628c0-0.172-0.028-0.321-0.087-0.449c-0.055-0.128-0.141-0.227-0.254-0.297
				c-0.111-0.071-0.235-0.106-0.375-0.106c-0.197,0-0.367,0.068-0.509,0.204C628.592,45.18,628.52,45.406,628.52,45.723z"/>
		</g>
		<path id="rect19_2_" fill="#B0AFB0" d="M603.126,47.905h0.198v3.423h-0.198V47.905z"/>
		<path id="rect21_2_" fill="#B0AFB0" d="M603.825,47.905h0.197v3.423h-0.197V47.905z"/>
		<g id="g23_2_" transform="matrix(0.95,0,0,0.95,5.793975,3.20085)">
			<path id="path25_2_" fill="#B0AFB0" d="M624.197,58.901v-2.106h0.287l1.104,1.654v-1.654h0.268v2.106h-0.286l-1.105-1.652v1.652
				H624.197z"/>
			<path id="path27_2_" fill="#B0AFB0" d="M626.334,58.901v-2.106h0.281v0.866h1.089v-0.866h0.281v2.106h-0.281V57.91h-1.089v0.991
				H626.334z"/>
		</g>
		<g id="g29_1_" transform="matrix(0.95,0,0,0.95,5.793975,3.20085)">
			<path id="path31_1_" fill="#B0AFB0" d="M629.306,59.268v0.186h-1.045c-0.002-0.048,0.005-0.092,0.022-0.135
				c0.027-0.071,0.069-0.14,0.128-0.21c0.059-0.07,0.144-0.149,0.252-0.239c0.174-0.14,0.289-0.254,0.349-0.335
				c0.062-0.083,0.091-0.16,0.091-0.234c0-0.077-0.028-0.141-0.083-0.194c-0.055-0.053-0.128-0.079-0.215-0.079
				c-0.094,0-0.17,0.028-0.225,0.085c-0.055,0.056-0.084,0.133-0.084,0.233l-0.2-0.021c0.013-0.151,0.066-0.264,0.153-0.341
				c0.09-0.079,0.211-0.117,0.362-0.117c0.152,0,0.269,0.042,0.36,0.126c0.086,0.084,0.132,0.188,0.132,0.312
				c0,0.062-0.013,0.125-0.038,0.187c-0.026,0.06-0.069,0.125-0.13,0.192c-0.059,0.067-0.159,0.16-0.298,0.278
				c-0.116,0.098-0.192,0.164-0.225,0.199c-0.033,0.034-0.062,0.07-0.082,0.105H629.306L629.306,59.268z"/>
		</g>
		<path id="polygon33_2_" fill="#B0AFB0" d="M600.017,56.888h-0.891l0.345-3.399l0.105-0.053l0.105,0.053L600.017,56.888z"/>
		<path id="polygon35_1_" fill="#B0AFB0" d="M591.671,53.494l-0.1-0.059v-0.117l3.999-2.305v0.227L591.671,53.494z"/>
		<path id="polygon37_1_" fill="#B0AFB0" d="M587.573,51.241v-0.227l3.998,2.305v0.117l-0.099,0.059L587.573,51.241z"/>
		<path id="polygon39_1_" fill="#B0AFB0" d="M587.52,52.009l0.1-0.168l3.306,1.91l-0.1,0.174L587.52,52.009z"/>
		<path id="polygon41_1_" fill="#B0AFB0" d="M583.666,53.494l-0.198-0.116l4.105-2.364v0.227L583.666,53.494z"/>
		<path id="polygon43_1_" fill="#B0AFB0" d="M583.666,57.999l-0.198,0.116v-4.738l0.198,0.116V57.999z"/>
		<path id="rect45_2_" fill="#B0AFB0" d="M584.161,53.837h0.197v3.818h-0.197V53.837z"/>
		<path id="polygon47_1_" fill="#B0AFB0" d="M587.573,60.252v0.227l-4.105-2.363l0.198-0.116L587.573,60.252z"/>
		<path id="polygon49_1_" fill="#B0AFB0" d="M591.473,57.999l0.198,0.116l-4.098,2.363v-0.227L591.473,57.999z"/>
		<path id="polygon51_1_" fill="#B0AFB0" d="M590.825,57.569l0.1,0.174l-3.306,1.91l-0.1-0.175L590.825,57.569z"/>
		<path id="polygon53_2_" fill="#B0AFB0" d="M591.473,53.494l0.099-0.059l0.1,0.059v4.622l-0.198-0.116V53.494z"/>
	</g>
</g>
<g id="Layer_5">
	<g>
		<g id="g4" transform="matrix(-1.1035701,0,0,1.1035701,139.71861,44.150185)">
			<path id="path6" fill="#7B7B7B" d="M-408.446,27.184l-0.019,0.846l0.237,0.005l0.042-1.856l-0.238-0.006l-0.017,0.802
				l-0.956-0.021l0.019-0.803l-0.237-0.004l-0.042,1.856l0.24,0.006l0.019-0.845L-408.446,27.184z"/>
		</g>
		<g id="g8" transform="matrix(-1.1035701,0,0,1.1035701,121.87398,43.832246)">
			<path id="path10" fill="#7B7B7B" d="M-423.176,26.463c-0.533-0.011-0.903,0.373-0.915,0.952
				c-0.013,0.581,0.339,0.981,0.873,0.993c0.225,0.004,0.427-0.058,0.581-0.183c0.206-0.165,0.331-0.45,0.338-0.753
				C-422.287,26.874-422.63,26.476-423.176,26.463z M-423.181,26.672c0.403,0.009,0.655,0.321,0.645,0.789
				c-0.01,0.448-0.284,0.747-0.676,0.738c-0.396-0.009-0.652-0.319-0.642-0.779C-423.844,26.963-423.573,26.663-423.181,26.672z"/>
		</g>
		<g id="g12" transform="matrix(1.1035701,0,0,1.1035701,-4.5188707,54.806666)">
			<path id="path14" fill="#7B7B7B" d="M529.104,17.768l0.092,0.051l0.003,0.107l-2.597,1.581l-0.095-0.158L529.104,17.768z"/>
		</g>
		<g id="g16" transform="matrix(1.1035701,0,0,1.1035701,23.788144,54.806666)">
			<path id="path18" fill="#7B7B7B" d="M507.24,19.737l0.006,0.211l-3.697-2.022l-0.003-0.107l0.089-0.056L507.24,19.737z"/>
		</g>
		<g id="g20" transform="matrix(1.1035701,0,0,1.1035701,61.751397,54.530773)">
			<path id="path22" fill="#7B7B7B" d="M476.395,17.826l0.095,0.158l-3.644,2.215l-0.006-0.211L476.395,17.826z"/>
		</g>
		<g id="g24" transform="matrix(1.1035701,0,0,1.1035701,14.476771,2.4603853)">
			<path id="path26" fill="#7B7B7B" d="M511.867,60.167c-0.533,0.012-0.886,0.412-0.873,0.994c0.013,0.58,0.383,0.964,0.919,0.951
				c0.223-0.005,0.422-0.077,0.57-0.208c0.197-0.176,0.311-0.465,0.304-0.769C512.775,60.536,512.412,60.154,511.867,60.167z
				 M511.871,60.376c0.402-0.009,0.669,0.291,0.68,0.759c0.011,0.448-0.25,0.76-0.642,0.769c-0.395,0.008-0.665-0.291-0.676-0.75
				C511.221,60.697,511.479,60.385,511.871,60.376z"/>
		</g>
		<g id="g28" transform="matrix(1.1035701,0,0,1.1035701,36.360677,2.7783129)">
			<path id="path30" fill="#7B7B7B" d="M494.462,60.866l0.019,0.847l0.235-0.006l-0.042-1.856l-0.236,0.004l0.019,0.803l-0.956,0.02
				l-0.019-0.802l-0.235,0.004l0.041,1.857l0.239-0.005l-0.019-0.845L494.462,60.866z"/>
		</g>
		<g id="g32" transform="matrix(1.1035701,0,0,1.1035701,22.850551,24.789338)">
			<path id="path34" fill="#7B7B7B" d="M504.239,42.083l0.181-0.005l0.065,2.886l-0.089,0.056l-0.092-0.051L504.239,42.083z"/>
		</g>
	</g>
</g>
<g id="Layer_6">
	<g>
		<g>
			<path fill="#484748" d="M580.838,87.353v0.272l-4.909,2.842l-0.129-0.215L580.838,87.353"/>
			<path fill="#484748" d="M584.572,90.408c0-0.427,0.114-0.761,0.343-1.003c0.228-0.24,0.523-0.361,0.886-0.361
				c0.237,0,0.451,0.058,0.641,0.17c0.191,0.113,0.336,0.271,0.436,0.475c0.1,0.202,0.15,0.433,0.15,0.689
				c0,0.262-0.054,0.494-0.158,0.698c-0.104,0.207-0.255,0.362-0.447,0.468c-0.192,0.106-0.4,0.158-0.623,0.158
				c-0.242,0-0.458-0.058-0.647-0.175c-0.191-0.116-0.334-0.276-0.434-0.479C584.62,90.847,584.572,90.634,584.572,90.408z
				 M584.922,90.414c0,0.309,0.082,0.553,0.249,0.729c0.166,0.18,0.375,0.268,0.627,0.268c0.256,0,0.466-0.09,0.631-0.27
				c0.165-0.179,0.248-0.435,0.248-0.765c0-0.21-0.036-0.393-0.106-0.548c-0.069-0.155-0.175-0.276-0.31-0.363
				c-0.136-0.085-0.288-0.128-0.459-0.128c-0.239,0-0.447,0.083-0.62,0.248C585.008,89.751,584.922,90.027,584.922,90.414z"/>
			<path fill="#484748" d="M587.485,91.658v-2.567h0.34v1.055h1.333v-1.055h0.339v2.567h-0.339v-1.21h-1.333v1.21H587.485z"/>
			<path fill="#484748" d="M584.44,89.434l-0.13,0.216l-3.473-2.024v-0.272L584.44,89.434"/>
		</g>
	</g>
</g>
</svg>
